<svg xmlns="http://www.w3.org/2000/svg" width="64" height="64"><rect width="100%" height="100%" fill="white"/><path d="M 35.161364168342295 25.04873929337967 L 35.12945917724567 25.413074651433586 Q 35.11017990112305 25.63323211669922 35.30392559148279 25.73955054157011 L 35.55298898238975 25.876224690889586 Q 35.62312316894531 25.914710998535156 35.70310326095822 25.912926374875706 L 35.79292344455417 25.910922185824315 Q 35.89289855957031 25.90869140625 35.81201558681281 25.84988711458766 L 35.54884527163109 25.65855458261935 Q 35.345829010009766 25.510955810546875 35.333716982462406 25.260248214354235 L 35.31571952143418 24.887717671939686 Q 35.31089401245117 24.78783416748047 35.248878771007135 24.866282302121373 L 35.21866267393881 24.90450510664399 Q 35.16843032836914 24.968048095703125 35.161364168342295 25.04873929337967 Z" stroke="#000000" stroke-width="0.02" stroke-opacity="1" fill="#000000" id="22path" stroke-dasharray="" fill-opacity="1" pointer-events="auto"/><path d="M 35.52395778133288 25.976270522774403 L 35.22438660130962 25.766472310950274 Q 35.043364281618096 25.6396972354287 34.854416979609674 25.754326712718516 L 34.61152199880491 25.901684861736854 Q 34.543124785408196 25.943179695144934 34.50468026882702 26.013336798454862 L 34.46150585566153 26.09212545374726 Q 34.413450209935064 26.17982183288467 34.50481770674495 26.139177269574244 L 34.80210169759077 26.00693135708908 Q 35.03143411458359 25.904913503179912 35.25460927558183 26.019777977728886 L 35.58622891951251 26.190456990482083 Q 35.67514332628471 26.236219729346217 35.63821286952821 26.1432888875134 L 35.620218998341905 26.098009577587707 Q 35.59030532836914 26.022735595703125 35.52395778133288 25.976270522774403 Z" stroke="#000000" stroke-width="0.02" stroke-opacity="1" fill="#000000" id="23path" stroke-dasharray="" fill-opacity="1" pointer-events="auto"/><path d="M 34.53090653543224 25.840071970955304 L 34.86238270655212 25.685534824725544 Q 35.06268430236625 25.592152434981486 35.057885914014946 25.37120453282075 L 35.05171750391278 25.087172234482917 Q 35.04998053075394 25.007191093429256 35.008444955322204 24.938818613778786 L 34.961799184891724 24.862034147537795 Q 34.909879715602045 24.776568547974705 34.89939519154966 24.876017402947475 L 34.86528151588556 25.19959584740095 Q 34.83896536051407 25.4492124733826 34.62790222706319 25.58505559502627 L 34.314280044160704 25.786907124687602 Q 34.23019114637151 25.84102789028269 34.329136844572055 25.8555105974746 L 34.3773468128267 25.862567102877676 Q 34.45749282836914 25.874298095703125 34.53090653543224 25.840071970955304 Z" stroke="#000000" stroke-width="0.02" stroke-opacity="1" fill="#000000" id="20path" stroke-dasharray="" fill-opacity="1" pointer-events="auto"/><path d="M 11.189376831054688 40.560691833496094 L 7.123985776974745 32.48353383987674 Q 5.775233478330556 29.803819818399447 7.500816466592102 27.34976942147962 L 13.816506595395985 18.367864770792025 L 16.869988341114297 20.64944871250411 Q 19.273205966733876 22.445150537393587 16.89166853690401 20.620793261441488 L 14.60483571223757 18.86898367394139 Q 12.223298282407704 17.04462639798929 14.55671809972577 18.93013745766179 L 17.378831119321767 21.210535211465853 L 13.605390070851133 27.221008619378427 Q 12.541970462583485 28.914861841104525 14.069948215617181 30.205320668899546 L 16.460421771787587 32.22420327176859" stroke="#000000" stroke-width="1" stroke-opacity="1" fill="none" id="16path" stroke-dasharray="" fill-opacity="1" pointer-events="auto"/><path d="M 14.003273010253906 18.586387634277344 L 15.996274805061754 15.024925674107825 Q 16.484613855504087 14.152271692387075 17.394406928193508 13.737209570667513 L 20.99715322952568 12.093579201590483 Q 21.315580804966977 11.948307458988637 21.533709356472407 12.22202252071916 L 21.54136857426232 12.231633565471006 Q 21.75949712576775 12.505348627201528 21.474373021685523 12.708336915709278 L 18.137254540278416 15.08413033124265 Q 17.648470361851736 15.432110254398793 17.50945586488486 16.01578393860346 L 17.47167959222947 16.174393412560292 Q 17.239988763951345 17.14718288623473 18.236019192636338 17.058169487616365 L 18.664813668017054 17.019848917819306 Q 19.16282888235955 16.97534221851012 19.473938918466985 16.583921031764657 L 20.51277589556864 15.276914650679029 Q 20.70566411795525 15.03423351489684 20.96570805436217 15.202985259000403 L 21.12861883356543 15.308703848342171 Q 21.380274255894705 15.47201198779723 21.259221167600383 15.746504519233712 L 20.673569563761795 17.074492045554678 Q 19.866548975132986 18.904442255131215 18.255934119140072 20.09015713892703 L 17.27734609427361 20.810581628910512" stroke="#000000" stroke-width="0.5" stroke-opacity="1" fill="none" id="14 path" stroke-dasharray="" fill-opacity="1" pointer-events="auto"/><ellipse cx="30.793418884277344" cy="39.10808563232422" rx="20" ry="10" fill="#ffffff" id="4circle" stroke="#000000" stroke-dasharray="" stroke-width="1" transform="rotate(0 30.793418884277344 39.10808563232422)" stroke-opacity="1" fill-opacity="1" pointer-events="auto"/><path d="M 50.65535354614258 40.560691833496094 L 53.80234090315846 32.68441367391847 Q 54.915438353784424 29.898554010293978 53.04531875417951 27.552780644605473 L 45.722833365102204 18.367864770792025 L 43.0473063667755 20.549374255549786 Q 40.72221877935036 22.445150537393587 43.02192619545756 20.518665188292402 L 44.86929042649869 18.971111747090475 Q 47.16899784260589 17.04462639798929 44.925675606324674 19.03648616820562 L 42.477163600390696 21.210535211465853 L 46.914785723693086 27.29864178586098 Q 48.092848851470436 28.914861841104525 46.62971395598959 30.278399987848594 L 44.54178360270778 32.22420327176859" stroke="#000000" stroke-width="1" stroke-opacity="1" fill="none" id="25path" stroke-dasharray="" fill-opacity="1" pointer-events="auto"/><path d="M 42.623748779296875 21.12624740600586 L 41.616387449842065 20.41963275158024 Q 39.97904056027586 19.27111406943881 39.16487930889332 17.44432961123165 L 38.46657016144042 15.87748975558313 Q 38.324091942448476 15.557802475396876 38.64252340785722 15.412539259689524 L 38.697079958821256 15.387651455273698 Q 39.01551142423 15.242388239566345 39.209799733406435 15.5335102980184 L 39.85316351678584 16.497528100967262 Q 40.18622918965973 16.996594486885073 40.755742747909885 17.185417967864655 L 41.04657807374896 17.281845063973652 Q 41.99576733749922 17.59655086560629 42.00813816523674 16.596627387223524 L 42.01296646115125 16.206360337359207 Q 42.019151875020015 15.706398598167823 41.638071371932185 15.382704838317057 L 38.66705785375793 12.85909492263573 Q 38.43078794184348 12.658404791528255 38.62705022196719 12.418444133501483 L 38.67108876869201 12.364600273927605 Q 38.861020007521404 12.132380282288793 39.11849565135391 12.286348762287254 L 42.570561493393825 14.35065792428027 Q 43.42881363950218 14.863886190941805 43.91998016413327 15.734951885985419 L 45.33273712641903 18.240424192359384" stroke="#000000" stroke-width="0.5" stroke-opacity="1" fill="none" id="26path" stroke-dasharray="" fill-opacity="1" pointer-events="auto"/><path d="M 21.91194926825796 35.27335902172571 L 22.00338976154736 36.88858799871114 Q 22.48381805419922 45.375 30.98381805419922 45.375 L 29.98381805419922 45.375 Q 38.48381805419922 45.375 38.870167592108636 36.883784890573246 L 38.943197575277715 35.27872720140923 Q 39.375 25.788545608520508 29.875 25.788545608520508 L 30.875 25.788545608520508 Q 21.375 25.788545608520508 21.91194926825796 35.27335902172571 Z" stroke="#000000" stroke-width="1" stroke-opacity="1" fill="#ffffff" id="9path" stroke-dasharray="" fill-opacity="1" pointer-events="auto"/><path d="M 28.342636108398438 25.955902099609375 L 28.292773507554976 26.11417084135547 Q 25.28787208182797 35.65202004448632 28.824518084208925 45.00574310291834 L 28.99514356341627 45.45701345288927" stroke="#000000" stroke-width="1" stroke-opacity="1" fill="none" id="12path" stroke-dasharray="" fill-opacity="1" pointer-events="auto"/><path d="M 32.41019821166992 25.62944793701172 L 32.449017458796526 25.757246185459906 Q 35.355434185099455 35.325565881888664 31.344859026877636 44.48609462755908 L 31.062705666687755 45.130559290291615" stroke="#000000" stroke-width="1" stroke-opacity="1" fill="none" id="13path" stroke-dasharray="" fill-opacity="1" pointer-events="auto"/><path d="M 23.48705291748047 28.676368713378906 L 23.937584930062823 27.144467116930702 Q 25.348337927539447 22.34761648551526 30.348198445494706 22.310269450931766 L 30.84140984608842 22.306585351511632 Q 35.84127036404368 22.26923831692814 37.02337482449511 27.12749202012035 L 37.450893319365946 28.88452228299259" stroke="#000000" stroke-width="1" stroke-opacity="1" fill="none" id="11path" stroke-dasharray="" fill-opacity="1" pointer-events="auto"/></svg>